<svg xmlns="http://www.w3.org/2000/svg"  viewBox="0 0 48 48" width="50px" height="50px"><path fill="#9fdadf" d="M27.192,3.527c-2.635,0.111-4.895-0.206-7.515,0.09c-2.641,0.298-5.317,1.839-7.59,3.187 C10.752,7.595,9.593,8.647,8.58,9.808c-3.182,3.651-4.914,8.442-4.984,13.24c-0.07,4.798,1.488,9.577,4.22,13.561 c0.541,0.789,1.13,1.551,1.828,2.211c1.048,0.989,2.318,1.723,3.598,2.403c1.863,0.99,3.787,1.891,5.819,2.483 c6.436,1.877,13.798,0.354,18.906-3.911c1.738-1.451,3.243-3.228,4.056-5.317c0.449-1.153,0.678-2.376,0.871-3.596 c0.312-1.976,0.535-3.97,0.537-5.97c0.003-3.417-0.639-6.81-1.572-10.103c-0.325-1.146-0.695-2.303-1.388-3.28 c-0.684-0.964-1.644-1.702-2.593-2.421C34.635,6.653,31.29,3.354,27.192,3.527z"/><path fill="#c56528" d="M24.888,34.524c1.172-0.12,5.687,0.187,6.86,0.293c1.174,0.106,2.459-0.12,3.561-0.539 c0.159-2.462,0.858-7.34,0.787-9.807c-0.028-0.977-0.074-1.955-0.224-2.92c-0.124-0.802-0.319-1.591-0.533-2.374 c-0.393-1.443-0.854-2.882-1.597-4.181s-1.792-2.457-3.132-3.123c-0.858-0.426-2.024-0.451-2.858,0.021 c-0.452-0.855-1.46-1.528-2.369-1.857c-0.909-0.33-1.891-0.395-2.857-0.414c-1.422-0.028-2.919,0.056-4.131,0.8 c-0.662,0.406-1.198,0.985-1.708,1.571c-0.527,0.605-1.037,1.227-1.457,1.91c-1.217,1.981-1.601,4.347-1.961,6.644 c-0.176,1.122-0.352,2.25-0.343,3.385c0.007,0.917,0.135,1.828,0.263,2.736c0.188,1.337-0.105,4.365,0.084,5.702 c0.055,0.392,0.115,0.797,0.318,1.137c0.53,0.885,1.754,0.976,2.785,0.966C17.731,34.461,23.533,34.537,24.888,34.524z"/><path fill="#fcbf95" d="M21.338,36.526c0,0,2.983,1.796,7.541,0.057c-0.492-1.512-0.867-3.916,0.15-5.054 s2.477-5.414,2.401-9.482c-0.076-4.068-0.201-3.589-0.201-3.589s-2.542-0.625-3.084-2.479c-1.437,1.729-2.742,2.438-3.354,2.5 c0.229-0.896,0.13-1.229,0.061-2.042c-0.452,0.061-1.082,1.917-2.507,2.485c-0.293,0.117-0.116-0.922-0.166-1.409 c-0.532,0.168-1.955,0.689-2.324,0.809c-1.537,0.5-2.389,1.129-2.389,1.129s-0.144,2.059,0.127,4.294 c0.271,2.235,0.337,4.473,1.851,7.082c1.514,2.609,2.125,2.463,2.125,2.463L21.338,36.526z"/><path fill="#febf10" d="M33.485,26.028c-0.013-0.14-0.039-0.281-0.097-0.411c-0.092-0.204-0.259-0.368-0.431-0.517 c-0.53-0.461-0.704-0.639-1.411-0.788l-0.529,3.141c0.619,0.288,1.662,0.275,2.121-0.214 C33.438,26.918,33.525,26.457,33.485,26.028z"/><path fill="#f26322" d="M12.572,40.559c0.43-0.621,1.128-1.009,1.846-1.245c0.718-0.236,1.471-0.34,2.205-0.519 c1.738-0.425,3.486-1.343,4.819-2.537c1.037,0.738,2.436,1.069,3.708,1.036c1.272-0.033,2.439-0.065,3.436-0.857 c1.737,0.902,4.029,1.326,5.983,1.447c0.515,0.032,1.035,0.036,1.541,0.143c0.862,0.182,1.655,0.671,2.206,1.358 c0,0-3.419,3.141-7.851,4.315c-4.432,1.174-8.224,1.1-11.105,0.09C16.477,42.781,13.863,42.119,12.572,40.559z"/><path d="M20.852,22.886c-0.35,0-0.63-0.253-0.64-0.584c-0.005-0.166,0.093-0.349,0.23-0.455c-0.031-0.003-0.063-0.007-0.099-0.002 c-0.217,0.007-0.408,0.067-0.539,0.17c-0.217,0.169-0.531,0.133-0.702-0.085c-0.17-0.218-0.132-0.532,0.085-0.702 c0.302-0.236,0.69-0.368,1.124-0.383c0.569,0,1.01,0.187,1.255,0.562c0.189,0.294,0.202,0.69,0.033,1.012 c-0.151,0.285-0.423,0.46-0.727,0.468C20.866,22.886,20.858,22.886,20.852,22.886z"/><path d="M27.581,22.995c-0.154,0-0.312-0.035-0.461-0.104c-0.235-0.109-0.348-0.381-0.259-0.624 c0.076-0.209,0.26-0.349,0.475-0.376c-0.016-0.008-0.032-0.014-0.049-0.018c-0.167-0.042-0.384,0.006-0.604,0.129 c-0.239,0.134-0.545,0.048-0.681-0.192c-0.135-0.241-0.048-0.546,0.192-0.681c0.451-0.251,0.929-0.328,1.34-0.225 c0.578,0.148,0.995,0.676,0.972,1.228c-0.013,0.305-0.166,0.569-0.421,0.725C27.935,22.948,27.761,22.995,27.581,22.995z M27.02,22.491c0,0.001,0,0.001,0,0.002C27.02,22.492,27.02,22.492,27.02,22.491z"/><path d="M24.392,26.949c-0.036,0-0.071-0.004-0.107-0.012c-0.529-0.115-0.976-0.523-1.138-1.041 c-0.086-0.273-0.086-0.54-0.086-0.775l0.003-3.371c0-0.276,0.224-0.5,0.5-0.5l0,0c0.276,0,0.5,0.225,0.5,0.5l-0.003,3.371 c0,0.179,0,0.348,0.04,0.476c0.056,0.176,0.218,0.325,0.396,0.364c0.27,0.059,0.44,0.325,0.382,0.595 C24.828,26.789,24.621,26.949,24.392,26.949z"/><path d="M24.561,30.156c-0.417,0-0.833-0.063-1.229-0.188c-0.264-0.084-0.409-0.365-0.325-0.628 c0.083-0.263,0.365-0.408,0.628-0.325c0.591,0.188,1.244,0.19,1.841,0.004c0.263-0.082,0.543,0.065,0.626,0.329 c0.082,0.264-0.065,0.544-0.329,0.626C25.381,30.096,24.971,30.156,24.561,30.156z"/><path fill="#bcbcbc" d="M28.69,36.491c0.223,0.484,0.454,0.782,0.276,1.285c-0.177,0.503-0.628,0.92-1.158,0.981 c-0.53,0.061-1.099-0.288-1.216-0.808c-0.121,0.729-0.869,1.575-1.608,1.582s-1.384-0.825-1.519-1.552 c-0.304,0.261-0.652,0.488-1.045,0.568c-0.393,0.08-0.837-0.009-1.11-0.302c-0.452-0.483-0.275-1.286,0.099-1.832 C21.41,36.413,25.425,38.15,28.69,36.491z"/><path fill="#febf10" d="M17.563,24.391c-0.191,0.008-0.772,0.146-0.947,0.225c-0.504,0.229-0.956,0.62-1.149,1.139 c-0.194,0.519-0.078,1.168,0.355,1.512c0.27,0.215,0.632,0.294,0.977,0.268c0.345-0.026,0.923-0.193,1.233-0.347L17.563,24.391z"/><path d="M42.342,14.674c-0.329-1.157-0.712-2.376-1.462-3.433c-0.747-1.055-1.784-1.839-2.699-2.53 c-0.51-0.386-1.021-0.793-1.538-1.203c-2.87-2.279-5.846-4.595-9.473-4.481c-1.07,0.049-2.099,0.02-3.094-0.008 c-1.419-0.037-2.886-0.077-4.457,0.101c-2.629,0.298-5.184,1.709-7.787,3.255C10.565,7.125,9.345,8.17,8.203,9.48 c-3.22,3.694-5.033,8.511-5.107,13.561c-0.07,4.779,1.46,9.698,4.309,13.852c0.664,0.968,1.267,1.696,1.897,2.291 c1.029,0.972,2.227,1.695,3.706,2.481c2.303,1.223,4.127,2.001,5.913,2.522c1.853,0.54,3.788,0.802,5.729,0.802 c4.932,0,9.901-1.691,13.638-4.81c2.02-1.687,3.433-3.544,4.201-5.52c0.488-1.253,0.721-2.566,0.9-3.699 c0.368-2.336,0.54-4.258,0.542-6.048C43.935,21.811,43.414,18.461,42.342,14.674z M19.2,43.228 c-1.718-0.502-3.482-1.256-5.724-2.445c-0.105-0.056-0.197-0.109-0.299-0.165c0.324-0.347,0.786-0.628,1.396-0.829 c0.43-0.141,0.873-0.232,1.344-0.328c0.275-0.057,0.551-0.113,0.824-0.181c1.321-0.323,2.647-0.929,3.809-1.711 c0.01,0.369,0.122,0.727,0.394,1.018c0.374,0.399,0.983,0.57,1.575,0.45c0.232-0.048,0.463-0.136,0.695-0.268 c0.349,0.688,0.998,1.262,1.759,1.262c0.005,0,0.01,0,0.015,0c0.681-0.006,1.325-0.486,1.721-1.085 c0.325,0.233,0.741,0.355,1.156,0.309c0.691-0.081,1.323-0.607,1.572-1.313c0.072-0.204,0.085-0.382,0.079-0.552 c1.863,0.696,3.87,0.922,5.02,0.993l0.342,0.019c0.396,0.021,0.77,0.039,1.126,0.114c0.615,0.13,1.191,0.453,1.645,0.894 c-0.001,0-0.001,0.001-0.002,0.002C32.688,43.552,25.449,45.049,19.2,43.228z M13.685,26.6c-0.123-0.877-0.251-1.784-0.258-2.67 c-0.01-1.095,0.166-2.218,0.337-3.305c0.332-2.125,0.709-4.533,1.892-6.459c0.415-0.676,0.922-1.285,1.408-1.844 c0.47-0.539,0.98-1.097,1.594-1.473c1.114-0.684,2.514-0.755,3.859-0.726c0.9,0.018,1.851,0.075,2.696,0.383 c0.762,0.276,1.582,1.016,1.994,1.797c0.437,0.825,0.492,1.996,0.399,2.815c-0.039,0.343-0.081,0.696-0.229,0.954 c-0.088,0.15-0.223,0.291-0.398,0.454c-0.496,0.462-1.037,0.868-1.615,1.214c0.078-0.497,0.109-1.001,0.093-1.507 c-0.008-0.227-0.167-0.42-0.388-0.471c-0.219-0.054-0.449,0.054-0.555,0.254c-0.451,0.854-1.113,1.598-1.905,2.151 c0.015-0.344,0.071-0.687,0.17-1.014c0.073-0.247-0.053-0.51-0.291-0.606c-0.237-0.099-0.512,0.002-0.631,0.23 c-0.289,0.551-1.057,0.763-1.799,0.967l-0.342,0.096c-0.993,0.29-1.932,0.753-2.765,1.361c0.121-0.499,0.337-0.977,0.636-1.388 c0.162-0.223,0.111-0.536-0.112-0.698c-0.22-0.159-0.534-0.113-0.698,0.112c-0.662,0.913-0.993,2.038-0.932,3.167 c0.011,0.195,0.135,0.367,0.317,0.438c0.181,0.072,0.39,0.03,0.53-0.107c0.086-0.084,0.184-0.156,0.274-0.235 c0.007,1.1,0.044,2.281,0.147,3.467c-0.269,0.057-0.563,0.137-0.702,0.202c-0.686,0.311-1.187,0.814-1.412,1.419 c-0.282,0.758-0.072,1.612,0.512,2.077c0.312,0.249,0.718,0.382,1.157,0.382c0.057,0,0.113-0.002,0.17-0.006 c0.257-0.02,0.604-0.102,0.923-0.206c0.083,0.307,0.169,0.613,0.271,0.906c0.592,1.714,1.338,3.452,2.778,4.558 c0.048,0.037,0.104,0.062,0.153,0.097c0.038,0.185,0.064,0.362,0.079,0.535l-4.67,0.052c-0.935,0.003-1.96-0.07-2.352-0.724 c-0.155-0.26-0.204-0.61-0.251-0.949c-0.089-0.628-0.063-1.717-0.037-2.77C13.759,28.389,13.784,27.309,13.685,26.6z M28.495,37.609c-0.122,0.348-0.429,0.615-0.743,0.651c-0.295,0.04-0.614-0.167-0.672-0.422c-0.015-0.07-0.048-0.131-0.089-0.187 c0.5-0.09,0.988-0.25,1.451-0.52C28.535,37.337,28.553,37.444,28.495,37.609z M17.529,26.852c-0.26,0.09-0.576,0.169-0.768,0.183 c-0.249,0.02-0.477-0.038-0.628-0.159c-0.242-0.193-0.327-0.6-0.197-0.946c0.13-0.349,0.453-0.661,0.89-0.859 c0.061-0.028,0.228-0.073,0.394-0.112C17.297,25.6,17.399,26.233,17.529,26.852z M17.966,19.736c0.63-0.401,1.31-0.724,2.029-0.933 l0.328-0.093c0.423-0.116,0.873-0.24,1.281-0.435c-0.004,0.275,0.015,0.552,0.054,0.823c0.023,0.16,0.123,0.299,0.267,0.372 c0.146,0.075,0.314,0.073,0.458,0c0.711-0.367,1.359-0.859,1.909-1.443c-0.039,0.174-0.084,0.346-0.137,0.518 c-0.058,0.188,0.001,0.393,0.149,0.522c0.148,0.129,0.357,0.163,0.538,0.077c1.034-0.475,1.982-1.108,2.817-1.885 c0.123-0.115,0.245-0.243,0.359-0.38c0.069,0.169,0.203,0.324,0.398,0.538c0.063,0.068,0.121,0.129,0.153,0.175 c0.125,0.186,0.284,0.354,0.503,0.532c0.493,0.401,1.186,0.734,1.831,0.894c-0.015,0.736-0.001,1.494,0.013,2.23 c0.016,0.868,0.032,1.766,0,2.606c-0.062,1.6-0.439,3.479-1.038,5.157c-0.645,1.807-1.909,3.243-3.471,3.942 c-1.658,0.744-3.665,0.559-4.99-0.458c-1.231-0.945-1.901-2.524-2.442-4.091C18.072,25.789,17.954,22.437,17.966,19.736z M31.833,24.912c0.244,0.092,0.398,0.219,0.716,0.496l0.079,0.068c0.12,0.105,0.251,0.229,0.304,0.347 c0.027,0.06,0.045,0.141,0.056,0.252c0.032,0.342-0.047,0.642-0.215,0.821c-0.222,0.239-0.823,0.3-1.302,0.174 C31.636,26.341,31.759,25.618,31.833,24.912z M24.257,34.416c0.862,0,1.74-0.181,2.561-0.549c0.354-0.158,0.69-0.358,1.014-0.577 c-0.025,0.303-0.016,0.594-0.002,0.875c0.008,0.156,0.016,0.313,0.016,0.472c0,0.393,0.127,1.023,0.311,1.491 c-0.845,0.603-1.855,0.636-3.019,0.666c-1.127,0.044-2.29-0.271-3.154-0.8c0.057-0.226,0.076-0.451,0.077-0.648l0.005-0.358 c0.006-0.35,0.009-0.675-0.013-1.012C22.744,34.257,23.491,34.416,24.257,34.416z M21.67,36.975 c0.462,0.256,0.966,0.466,1.511,0.605c-0.013,0.009-0.029,0.009-0.04,0.019c-0.3,0.256-0.567,0.406-0.819,0.457 c-0.256,0.055-0.512-0.011-0.646-0.153C21.478,37.692,21.521,37.314,21.67,36.975z M25.162,37.794 c0.325-0.009,0.652-0.019,0.978-0.041c-0.016,0.037-0.034,0.073-0.04,0.115c-0.092,0.551-0.678,1.16-1.12,1.164 c-0.001,0-0.003,0-0.004,0c-0.447,0-0.922-0.624-1.019-1.143c-0.013-0.069-0.049-0.127-0.087-0.183 C24.291,37.768,24.721,37.808,25.162,37.794z M28.828,34.106c-0.014-0.283-0.028-0.551,0.002-0.809 c0.014-0.109,0.063-0.331,0.11-0.553c0.039-0.18,0.072-0.343,0.097-0.479c0.766-0.807,1.384-1.797,1.783-2.917 c0.153-0.428,0.289-0.865,0.412-1.304c0.23,0.058,0.471,0.099,0.719,0.099c0.591,0,1.186-0.174,1.551-0.563 c0.37-0.396,0.541-0.963,0.481-1.602c-0.015-0.142-0.044-0.354-0.14-0.568c-0.133-0.294-0.357-0.513-0.56-0.688l-0.078-0.068 c-0.426-0.371-0.706-0.593-1.289-0.758c0-0.001,0-0.001,0-0.002c0.033-0.87,0.017-1.782,0-2.664c-0.016-0.868-0.032-1.766,0-2.606 c0.01-0.262-0.184-0.487-0.444-0.517c-0.563-0.063-1.307-0.382-1.769-0.758c-0.14-0.114-0.236-0.214-0.304-0.314 c-0.049-0.072-0.142-0.178-0.244-0.29c-0.067-0.074-0.192-0.212-0.212-0.243c-0.113-0.282-0.213-0.637-0.305-0.958l-0.055-0.189 c0.005-0.041,0.011-0.082,0.015-0.122c0.128-1.136-0.028-2.269-0.397-3.122c0.806-0.379,1.789,0.014,2.184,0.21 c1.44,0.716,2.383,1.985,2.921,2.924c0.74,1.293,1.182,2.718,1.549,4.063c0.186,0.684,0.393,1.493,0.521,2.32 c0.139,0.89,0.188,1.785,0.219,2.857c0.045,1.556-0.229,4.135-0.469,6.411c-0.118,1.116-0.229,2.178-0.294,3.021 c-1.014,0.34-2.102,0.486-3.041,0.401c-0.3-0.027-0.585-0.061-0.863-0.094C30.236,34.144,29.572,34.071,28.828,34.106z M42.401,30.805c-0.171,1.081-0.392,2.332-0.844,3.492c-0.609,1.566-1.672,3.059-3.162,4.451c-0.596-0.602-1.351-1.033-2.184-1.21 c-0.435-0.092-0.865-0.113-1.283-0.135L34.6,37.386c-1.227-0.076-3.479-0.341-5.373-1.203c-0.002-0.082-0.018-0.165-0.063-0.241 c-0.097-0.163-0.199-0.514-0.261-0.839c0.648-0.026,1.242,0.036,1.91,0.116c0.287,0.034,0.581,0.068,0.891,0.097 c0.209,0.019,0.423,0.028,0.641,0.028c1.02,0,2.113-0.206,3.144-0.598c0.183-0.07,0.309-0.24,0.321-0.436 c0.056-0.866,0.182-2.052,0.313-3.308c0.244-2.308,0.521-4.923,0.475-6.546c-0.032-1.109-0.084-2.041-0.23-2.981 c-0.136-0.875-0.351-1.719-0.544-2.43c-0.366-1.343-0.849-2.903-1.646-4.297c-0.869-1.519-2.025-2.668-3.343-3.323 c-1.136-0.563-2.266-0.618-3.131-0.178c-0.562-0.752-1.358-1.394-2.148-1.681c-0.983-0.357-2.032-0.425-3.019-0.443 c-1.416-0.028-3.064,0.053-4.401,0.873c-0.733,0.449-1.304,1.07-1.825,1.669c-0.515,0.591-1.053,1.238-1.506,1.977 c-1.288,2.097-1.682,4.61-2.028,6.829c-0.177,1.126-0.358,2.29-0.349,3.466c0.007,0.952,0.14,1.893,0.268,2.801 c0.089,0.629,0.063,1.718,0.037,2.771c-0.027,1.143-0.053,2.223,0.047,2.932c0.055,0.396,0.124,0.89,0.384,1.324 c0.678,1.132,2.196,1.211,3.016,1.211c0.074,0,0.142,0,0.203-0.001l4.684-0.053c0,0.018,0,0.033-0.001,0.051l-0.005,0.365 c-0.002,0.164-0.007,0.336-0.053,0.467c-0.02,0.059-0.026,0.12-0.024,0.179c-1.252,1.085-2.87,1.932-4.479,2.326 c-0.261,0.063-0.523,0.117-0.787,0.171c-0.478,0.099-0.971,0.199-1.455,0.358c-0.868,0.286-1.523,0.72-1.969,1.281 c-0.877-0.514-1.64-1.036-2.305-1.663c-0.577-0.545-1.136-1.223-1.759-2.131c-2.732-3.983-4.2-8.696-4.133-13.27 c0.069-4.745,1.842-9.454,4.861-12.92c1.071-1.229,2.211-2.206,3.385-2.903c2.507-1.487,4.958-2.845,7.39-3.12 c0.866-0.098,1.688-0.127,2.505-0.127c0.601,0,1.2,0.016,1.813,0.032c1.01,0.025,2.053,0.052,3.163,0.008 c3.229-0.162,6.082,2.1,8.808,4.265c0.523,0.415,1.041,0.827,1.557,1.217c0.857,0.648,1.829,1.383,2.487,2.312 c0.658,0.928,1.01,2.054,1.314,3.128c1.048,3.696,1.556,6.956,1.553,9.965C42.93,26.649,42.762,28.521,42.401,30.805z"/></svg>